<svg id="Ebene_1" data-name="Ebene 1" xmlns="http://www.w3.org/2000/svg" viewBox="0 0 1920 1920"><defs><style>.cls-1{fill:#fff;}</style></defs><rect width="1920" height="1920"/><path class="cls-1" d="M679.87,1115.18,842.66,924.92l50.06-58.5a19.71,19.71,0,0,0-2.9-28.4L630,636.75a102.55,102.55,0,0,0-140.73,14.41h0L326.46,841.41,285.79,889a33.46,33.46,0,0,0,4.93,48.2l248.41,192.43a102.57,102.57,0,0,0,140.74-14.4ZM403.69,901.24,566.49,711,765.43,865.09,602.64,1055.35Z"/><path class="cls-1" d="M1240.13,1124.86a102.56,102.56,0,0,0,140.74,14.41l248.41-192.43a33.46,33.46,0,0,0,4.93-48.2l-40.67-47.54-162.8-190.26h0A102.56,102.56,0,0,0,1290,646.44L1030.18,847.71a19.71,19.71,0,0,0-2.9,28.4l50.06,58.5,162.79,190.25Zm77.23-59.82L1154.57,874.78l198.94-154.11,162.8,190.26Z"/><path class="cls-1" d="M949.06,860.65l-309.9,379.43a11.57,11.57,0,0,0,9,18.89h619.79a11.57,11.57,0,0,0,9-18.89L967,860.65A11.57,11.57,0,0,0,949.06,860.65Z"/><path class="cls-1" d="M946.54,1859.62l-309.9-379.43a11.56,11.56,0,0,1,9-18.88h619.8a11.57,11.57,0,0,1,9,18.88l-309.9,379.43A11.57,11.57,0,0,1,946.54,1859.62Z"/><rect class="cls-1" x="668.38" y="1298.75" width="576.57" height="128.98" rx="4.7"/><path class="cls-1" d="M543.93,213c-.43.82-.86,1.6-1.32,2.37H540c.39-.77.78-1.55,1.13-2.37Z"/><path class="cls-1" d="M543.93,213c-.43.82-.86,1.6-1.32,2.37H540c.39-.77.78-1.55,1.13-2.37Z"/><path class="cls-1" d="M1505.67,178.75a69.4,69.4,0,0,1-131,32h-87.5l-68.24,117a16.5,16.5,0,0,0,2,19.42,104.28,104.28,0,0,1,15.34,21.55l70.41,131.51a91,91,0,0,1-26.87,116.68L1016.64,807.28a89.26,89.26,0,0,1-106.85-1.63L663.67,616a91,91,0,0,1-26-112.4L706,365.33a.13.13,0,0,1,0-.11,16.9,16.9,0,0,0-.42-15.93L627.55,215.41H542.61c.46-.77.89-1.55,1.32-2.37h-2.76c-.35.82-.74,1.6-1.13,2.37h2.57a69.38,69.38,0,1,1-.93-70.3c.46.78.93,1.56,1.32,2.33H644.83a37.87,37.87,0,0,1,32.67,18.8l69.36,118.93A45.35,45.35,0,0,0,786,307.62h339.93a45.29,45.29,0,0,0,39.11-22.45l72.12-123.67a37.89,37.89,0,0,1,32.7-18.76h107a69.42,69.42,0,0,1,128.76,36Z"/><path class="cls-1" d="M495.58,515.42"/><line class="cls-1" x1="970.54" y1="741.82" x2="968.86" y2="740.49"/><path class="cls-1" d="M1240.39,56.13"/><line class="cls-1" x1="968.86" y1="740.49" x2="967.15" y2="741.82"/></svg>