<svg id="Ebene_1" data-name="Ebene 1" xmlns="http://www.w3.org/2000/svg" viewBox="0 0 1920 1080" fill="white"><path d="M201.13,581.74l41.92-49,12.89-15.06a5.08,5.08,0,0,0-.75-7.31l-66.9-51.82a26.4,26.4,0,0,0-36.23,3.71h0l-41.92,49L99.67,523.49a8.61,8.61,0,0,0,1.27,12.41l64,49.55a26.41,26.41,0,0,0,36.23-3.71ZM130,526.66l41.91-49,51.22,39.68-41.91,49Z"/><path d="M345.38,584.23a26.4,26.4,0,0,0,36.24,3.71l64-49.54A8.62,8.62,0,0,0,446.85,526l-10.47-12.24-41.92-49h0a26.42,26.42,0,0,0-36.24-3.71l-66.89,51.82a5.08,5.08,0,0,0-.75,7.32l12.89,15.06,41.91,49Zm19.89-15.4-41.92-49,51.23-39.67,41.91,49Z"/><path d="M263.79,524.35,202.1,599.87a11.57,11.57,0,0,0,9,18.89H334.43a11.57,11.57,0,0,0,9-18.89l-61.68-75.52A11.58,11.58,0,0,0,263.79,524.35Z"/><path d="M263.14,765.27l-61.68-75.52a11.57,11.57,0,0,1,9-18.89H333.78a11.57,11.57,0,0,1,9,18.89l-61.68,75.52A11.58,11.58,0,0,1,263.14,765.27Z"/><rect x="198.17" y="629" width="148.45" height="33.21" rx="4.7"/><path d="M166.13,349.47c-.11.21-.22.41-.34.61h-.66c.1-.2.2-.4.29-.61Z"/><path d="M166.13,349.47c-.11.21-.22.41-.34.61h-.66c.1-.2.2-.4.29-.61Z"/><path d="M413.75,340.64A17.87,17.87,0,0,1,380,348.87H357.49L339.92,379a4.25,4.25,0,0,0,.51,5,26.83,26.83,0,0,1,3.95,5.55l18.13,33.86a23.42,23.42,0,0,1-6.92,30l-67.75,49a23,23,0,0,1-27.51-.42L197,453.21a23.43,23.43,0,0,1-6.69-28.94l17.6-35.59a0,0,0,0,1,0,0,4.35,4.35,0,0,0-.11-4.1l-20.11-34.47H165.79c.12-.2.23-.4.34-.61h-.71c-.09.21-.19.41-.29.61h.66a17.86,17.86,0,1,1-.24-18.1c.12.2.24.4.34.6h26.22a9.75,9.75,0,0,1,8.41,4.84L218.38,368a11.67,11.67,0,0,0,10.08,5.78H316A11.65,11.65,0,0,0,326.05,368l18.57-31.84a9.75,9.75,0,0,1,8.42-4.83H380.6a17.87,17.87,0,0,1,33.15,9.27Z"/><line x1="275.97" y1="485.61" x2="275.54" y2="485.27"/><line x1="275.54" y1="485.27" x2="275.1" y2="485.61"/><path d="M845.36,665.58a70.39,70.39,0,0,1-3.18-15.9q-20.67,20.67-53.1,20.67-27.35,0-42.93-13.2t-15.59-36.4a57.08,57.08,0,0,1,2.71-18.45,30.41,30.41,0,0,1,8.9-13.36,95.39,95.39,0,0,1,11.77-8.9q5.56-3.49,15.42-5.72t15.9-3.34q6-1.11,16.85-2.39,23.85-3.18,32-6.68t8.11-13q0-21.95-29.58-22-15.58,0-22.9,5.57t-9.54,19.56H737.88q3.81-55.33,76-55.34,71.55,0,71.55,53.43v70.91q0,31.17,5.73,44.52Zm-35.3-71.23q-20,3.18-26.07,7.95-7,6-7,16.54,0,10.17,6.52,16.06t18.29,5.88q18.12,0,29.09-9.7t11-26.87V585.77Q833.91,590.53,810.06,594.35Z"/><path d="M1052.53,651.91q-20.83,17.8-53.59,17.81-37.83,0-60.73-23.22t-22.9-61.69q0-39.75,23.05-63.92t61.22-24.17q32.76,0,53.42,16.7t23.54,45.31h-44.21q-5.08-28.29-32.43-28.3-18.45,0-28.78,14.15t-10.34,39.28q0,24.48,10,38t28.14,13.51q29.58,0,35-33.07h43.57Q1073.37,634.1,1052.53,651.91Z"/><path d="M1201.18,562.23l69,103.35h-54.7l-45.15-72.82-18.45,17.17v55.65h-44.2V439.16h44.2V560.32l57.88-58.83h53.11Z"/><path d="M1330.6,521.53q19.08-23.85,51.83-23.85T1434,521.53q18.77,23.85,18.76,60.42,0,39.43-20.19,63.76T1379.89,670q-34,0-51.52-25.12l.32,20.67h-42.93V439.16h44.84Zm9.06,24.33Q1329,559.36,1329,582.58q0,23.85,10.5,37.53t28.94,13.67q17.49,0,28.14-14t10.66-37.52q0-22.59-10.66-36.26t-28.14-13.67Q1350.3,532.34,1339.66,545.86Z"/><path d="M1606.45,655.72q-20.51,14.64-48.81,14.63-37.85,0-60.9-23.53t-23.06-62.33q0-38.16,23.22-63t59.15-24.81q37.2,0,59.15,25.28t21.94,68.53V595H1519.48q.32,21.3,10.33,32.43T1558,638.55q23.85,0,33.39-23.85h43.25Q1627,641.1,1606.45,655.72Zm-25.6-115.91q-8.89-10.34-24.8-10.33-15,0-24.81,9.86t-11.76,27h71.86Q1589.75,550.14,1580.85,539.81Z"/><path d="M1793.84,655.72q-20.5,14.64-48.81,14.63-37.85,0-60.89-23.53t-23.06-62.33q0-38.16,23.21-63t59.15-24.81q37.21,0,59.15,25.28t21.94,68.53V595H1706.87q.32,21.3,10.34,32.43t28.14,11.13q23.85,0,33.39-23.85H1822Q1814.36,641.1,1793.84,655.72Zm-25.59-115.91q-8.91-10.34-24.81-10.33-14.94,0-24.8,9.86t-11.77,27h71.87Q1777.15,550.14,1768.25,539.81Z"/><rect x="533.87" y="439.17" width="54.51" height="17.21" rx="2.05"/><rect x="533.87" y="526.33" width="54.51" height="9.86" rx="1.02"/><path d="M534.89,551.82h52.46a1,1,0,1,0,0-2H534.89a1,1,0,1,0,0,2Z"/><path d="M534.89,623.85h52.46a1,1,0,0,0,0-2H534.89a1,1,0,0,0,0,2Z"/><rect x="533.87" y="572.25" width="54.51" height="23.33" rx="1.02"/><rect x="533.87" y="601.53" width="54.51" height="14.53" rx="1.02"/><rect x="533.87" y="490.77" width="54.51" height="14.53" rx="1.02"/><rect x="533.87" y="630" width="54.51" height="8.41" rx="1.02"/><path d="M586.32,661.74H535.91a2.08,2.08,0,0,1-2.06-2.06v-9.3a2,2,0,0,1,2.06-2.06h50.41a2,2,0,0,1,2.06,2.06v9.3A2.08,2.08,0,0,1,586.32,661.74Z"/><rect x="533.87" y="463.48" width="54.51" height="3.82" rx="1.02"/><rect x="533.87" y="513.09" width="54.51" height="3.82" rx="1.02"/><rect x="533.87" y="561.33" width="54.51" height="3.82" rx="1.02"/><rect x="533.87" y="473.77" width="54.51" height="7.27" rx="1.02"/><path d="M707,456.22q-22.07-18.12-59.78-18.08H603.3a3.79,3.79,0,0,0-3.79,3.79v32.62a3.79,3.79,0,0,0,3.79,3.79h40.16q37.93,0,37.94,32.32,0,32.05-38.32,32.05H603.3a3.79,3.79,0,0,0-3.79,3.78v31a3.79,3.79,0,0,0,3.79,3.79h46.43q35.57,0,57.44-18,22.07-18.14,22-53.22C729.19,486.21,721.79,468.31,707,456.22Z"/></svg>